<svg xmlns="http://www.w3.org/2000/svg" version="1.1" xmlns:xlink="http://www.w3.org/1999/xlink" xmlns:svgjs="http://svgjs.dev/svgjs" viewBox="0 0 800 800"><defs><linearGradient x1="50%" y1="0%" x2="50%" y2="100%" id="ssscribble-grad"><stop stop-color="hsl(265, 55%, 30%)" stop-opacity="1" offset="0%"></stop><stop stop-color="hsl(265, 55%, 60%)" stop-opacity="1" offset="100%"></stop></linearGradient></defs><g fill="none" stroke-width="1.5" stroke="url(#ssscribble-grad)" stroke-linecap="round"><path d="M1100.03 620.88C1078.37 653.74 978.24 682.76 840.91 706.22 672.66 733.55 713.36 722.58 849.49 677.01 929.1 641.12 968.37 599.73 963.49 562.39 920.24 545.21 846.9 550.63 759.79 587.61 662.64 657.6 571.53 755.71 492.99 869.05 419.38 976.28 359.39 1058.12 311.01 1093.28 265.38 1074.63 226.79 1001.83 193.93 890.96 161.06 776.11 135.5 686.07 119.15 640.79 105.55 648.98 105.77 701.18 122.43 778.76 144.03 868.36 181.01 942.73 227.52 987.73 263.99 1001.96 290.15 979.52 290.33 928.4 252.14 855.08 173.91 770.48 60.08 685.19 -66.47 598.49 -183.51 520.9 -257.98 454.75 -268.28 393.37 -207.61 341.97 -91.73 298.7 32.9 257.41 126.37 220.76 148.03 187.89 83.16 155.03 -36.49 127.52 -162.16 106.83 -254.79 88.14 -277.49 79.75 -228.06 84.18 -123.23 93.38 6.41 116.85 127.28 152.9 244.11 206.26 225.98 255.03 156.92 198.34 108.04 119.13 75.3 15.29 61.28 -98.39 55.45 -200.06 65.54 -270.97 86.88 -291.85 111.44 -259.27 141.48 -175.9 174.34 -61.06 207.2 49.81 241.33 129.29 278.74 160.63 319.37 138.16 369.06 75.03 431.84 -8.09 502.81 -97.35 589.66 -166 689.19 -201.78 786.23 -204.55 878.73 -171.02 949.71 -110.77 984.66 -30.37 974.98 58.19 916.69 144.73 830.03 230.47 729.86 305.54 649.11 368.53 623.77 425.92 665.17 473.72 770.49 514.36 908.84 552.87 1035.15 588.02 1100.03 620.88Q1100.03 620.88 1100.03 620.88" opacity="0.42"></path><path d="M1066.03 562.62C1048.81 593.13 961.96 614.96 837.47 627.55 711.64 638.94 619.6 639.16 580.26 627.61 598.36 614.31 659.13 590.27 738.92 558.81 824.26 532.94 887.53 509.37 918.43 496.66 919.25 505.52 887.64 537.42 834.05 596.41 763.14 678.82 686.64 779.07 613.53 883.97 538.51 975.55 473.14 1039.1 419.51 1059.07 366.77 1032.7 324.85 960.7 294.34 856.96 263.82 749.77 246.16 662.33 241.35 611.62 237.44 606.29 247.3 641.13 269.44 703.08 289.67 783.12 315.92 858.46 339.8 915.32 346.37 951.69 334.17 957.46 293.35 935.76 222.46 891.75 123.01 830.88 5.9 762.18 -105.65 686.21 -193.79 612.59 -234.25 545.93 -217.29 480.08 -142.61 423.08 -28.56 375.47 84.15 328.85 164.81 290.13 182.03 259.62 124.3 229.1 17.08 208.23 -100.98 197.31 -198.77 187.37 -241.79 188.86 -222.1 201.82 -148.06 215.61 -38.65 238.97 78.97 267.92 187.46 289.59 267.14 306.66 313.05 310.68 326.01 292.4 313.93 250.45 289.15 182.32 251.75 93.69 218.59 -9 196.33 -111.41 172.26 -221.84 195.33 -174.86 235.93 -27.06 266.45 76.69 305.85 154.88 354.41 193.04 404.7 184.85 466.73 138.67 540.42 69.46 615.56 -13.05 698.97 -85.94 783.4 -136.59 855.2 -163.81 911.1 -159.53 938.13 -128.41 932.21 -75.71 888.71 -8.34 811.99 64.55 726.13 143.03 644.08 217.33 592.41 283.51 595.09 347.94 655.48 403.23 765.05 449.39 894.9 494.35 1008.3 532.1 1066.03 562.62Q1066.03 562.62 1066.03 562.62" opacity="0.97"></path><path d="M1032.03 458.13C1018.82 486.3 944.7 503.8 833.93 511.07 714.43 518.12 615.4 514.88 555.95 502.66 544.08 491.94 574.5 475.57 632.02 458.01 707.79 449.63 778.12 448.8 830.15 462 864.51 494.5 871.3 547.27 854.69 620.57 820.17 707.7 772.34 803.41 719.46 895.49 660.27 969.85 604.15 1015.69 555.58 1022.19 506.21 989.72 466.5 919.42 438.33 822.96 410.16 723.56 394.88 639.53 391.13 585.06 386.58 568.18 391.46 586.67 401.83 632 405.9 698.66 407.35 768.57 398.45 829.48 371.66 879.67 324.42 907.02 253.15 911 164.21 896.03 60.48 862.34 -44.61 816.51 -131.46 760.52 -187.13 701.05 -195.91 643.42 -157.11 583.52 -74.11 529.38 34.51 483.26 134.41 437.14 202.82 399.41 216.03 371.24 165.1 343.07 70.22 325.8 -38.63 318.8 -166.66 313.24 -118.74 341.14 24.67 360.27 133.3 362.69 229.05 355.95 302.19 334.01 351.56 293.11 375.97 232.38 382.28 152.86 371.97 62.63 356.17 -32.54 342.5 -119.84 324.86 -185.82 316.14 -220.35 319.02 -214.35 321.89 -170.76 337.03 -92.45 365.2 6.93 393.37 103.4 433.23 179.43 483.47 222.77 533.71 227.15 593.67 197.35 660.13 143.64 722.61 72.21 784.8 1.75 838.52 -56.05 875.62 -100.02 891.64 -119.4 879.19 -114.99 842.97 -91.27 780.62 -50 701.31 1.78 628.36 62.75 571.34 125.5 549.56 185.03 576.74 246.07 650.99 300.55 760.78 346.61 880.51 392.47 981.1 429.96 1032.03 458.13Q1032.03 458.13 1032.03 458.13" opacity="0.74"></path><path d="M998.03 337.11C988.4 362.93 926.33 379.14 829.81 386.7 719.64 394.81 619.1 395.58 545.81 391.3 508.76 390.49 509.2 388.87 539.14 390.7 593.81 402.44 655.58 424.2 712.11 459.91 763.64 510.29 796.7 576.21 810.34 655.37 810.6 739.95 794.94 825.56 768.82 901.78 735.32 958.38 698.34 987.71 662.57 982.68 625.09 945.74 592.33 877.97 566.51 788.96 540.69 697.47 523.03 617.64 511.82 561.04 498.9 534.73 488.91 538.5 477.66 567.23 459.04 618.09 432.18 677.51 392.12 735.39 338.69 790.77 268.56 831.32 183.19 854.24 92.82 863.56 0.45 855.45 -81.1 833.74 -137.93 801.84 -161.53 762.47 -143.4 720.41 -89.03 674.4 -3.19 630.19 97.01 590.76 183.57 550.61 240.4 516.85 250.03 491.03 205.55 465.21 122.75 448.55 24.39 440.01 -106.03 429.36 -129.07 424.99 -24.74 415.52 70.14 397.44 165.88 368.49 251.3 325.34 324.56 268.57 378.64 197.41 415.08 115.15 436.62 30.39 447.24 -52.17 452.99 -121.97 452.18 -169.63 453.62 -188.1 461.25 -171.76 467.63 -125.14 482.96 -50.55 508.78 40.92 534.6 129.94 569.69 202.96 612 249.87 653.06 264.88 698.59 250.24 744.15 212.57 783.14 155.28 815.04 92.82 833.29 35.13 836.65 -17.14 819.64 -52.45 780.22 -68.99 728.64 -70.87 663.51 -55.56 595.51 -27.5 544.08 10.45 515.2 54.59 521.28 100.14 568.06 149.17 650.85 195.37 757.2 235.95 865.52 277.08 953.55 311.29 998.03 337.11Q998.03 337.11 998.03 337.11" opacity="0.58"></path><path d="M964.03 233.97C957.54 257.44 906.71 274.63 824.57 286.55 726.1 299.4 629.02 308.88 548.47 317.32 492.8 329.75 467.15 345.06 468.88 366.41 496.12 396.15 537.81 435.91 584.09 487.26 635.26 547.69 678.01 618.2 708.29 695.13 732.08 770.99 741.84 842.43 739.58 901.15 731.67 940.47 715.84 955.07 695.34 940.62 673.12 900.82 649.47 836.39 626 754.97 602.53 671.49 580.35 596.6 558.3 539.46 534.53 505.99 507.66 497.13 474.9 510.26 436.48 544.37 388.06 589.87 328.1 639.02 261.64 691.68 185.19 736.69 103.26 770.18 26.22 795.97 -43.29 807.69 -94.98 806.73 -121.15 797.65 -116.55 779.3 -78.09 755.06 -14.73 726.69 68.97 696.33 158.38 666.76 231.47 636.18 277.54 608.43 284.03 584.95 245.66 561.48 174.58 543.4 87.62 529.72 -3.03 515.02 -75.75 502.68 -119.15 490.38 -131.46 473.93 -109.05 453.63 -59.03 426.54 12.19 391.32 93.97 345.9 176.07 289.35 256.73 225.09 326.66 152.25 383.56 75.15 430.91 1.56 466.55 -64.97 493.59 -116.29 514.46 -146.62 531.95 -151.13 549.37 -126.71 565.14 -78.64 584.08 -8.5 607.55 74.97 631.02 156.39 657.92 225.58 686.41 274.43 713.25 297.94 738.46 296.7 758.27 274.59 771.92 233.07 774.94 182.67 763.77 131.26 743.05 78.77 706.82 36.09 656.92 6.42 605.59 -14.15 551.63 -20.21 504.84 -13.78 479.25 1.04 477.89 24.38 507.39 52.62 567.99 84.87 654.06 118.09 753.77 149.5 849.79 181.85 925.63 210.49 964.03 233.96Q964.03 233.97 964.03 233.97" opacity="0.70"></path><path d="M929.96 177.91C926.36 199.03 886.05 218.17 818.16 235.98 733.11 254.73 643.71 273.95 562.14 295.3 495.27 320.03 449.85 349.72 426.76 386.06 425.73 428.02 441.52 478.27 467.52 536.53 504.01 598.62 540.47 665.64 571.86 733.58 603.22 796.22 625.2 851.13 636.97 892.15 646.14 915.55 646.07 917.62 637.9 895.99 628.64 854.9 613.16 794.56 592.04 720.86 570.91 645.49 545.14 576.19 514.56 520.05 482.9 481.72 444.54 462.73 398.76 462.11 350.37 479.91 293.6 509.84 229.69 546.41 165.74 590.1 98.95 631.73 34.77 667.33 -39.33 712.14 -66.38 744.53 -1.75 735.66 64.32 724.02 141.7 707.66 218.6 688.51 278.33 668.41 314.36 647.31 317.96 626.18 285.1 605.06 225.08 584.91 149.98 565.17 67.66 544.48 -4.75 522.41 -57.42 497.44 -88.57 469.2 -91.74 435.43 -69.76 394.78 -26.78 349.08 31.71 295.42 97.83 234.6 169.99 171.31 239.69 104.63 302.68 38.94 362.38 -19.62 413.05 -68.5 454.9 -101.78 492.91 -116.65 524.48 -109.69 551.22 -79.52 576.65 -31.54 599.63 33.46 620.76 108.82 641.88 182.53 660.15 247.16 674.55 296.41 691.08 331.18 679.94 284.73 644.85 226.11 614.42 180.16 575.05 138.19 530.58 103.78 475.43 63.25 448.79 42.65 506.48 57.08 574.63 72.34 659.08 91.55 749.55 112.64 832.8 134.67 897.1 156.78 929.96 177.91Q929.96 177.91 929.96 177.91" opacity="0.42"></path><path d="M896.02 185.17C894.49 203.95 863.37 224.6 808.89 247.24 738.06 270.57 659.61 297.16 582.75 327.71 512.49 360.37 455.56 398.5 414.62 442.36 389.9 488.87 380.48 541.05 382.84 597.5 396.87 653.75 416.07 710.82 436.01 765.03 460.05 811.92 480 849.7 493.53 874.13 507.28 883.73 513.32 875.79 511.06 849.25 508.53 808.36 498.03 752.8 479.25 686.93 460.47 619.76 434.31 556.67 401.42 502.96 368.27 462.08 328.07 435.7 281.78 423.84 235.7 427.02 184.83 441.51 131.85 463.73 82.97 494.45 36.81 526.82 -1.82 557.38 -28.79 589.27 -41.63 615.52 -36.47 634.72 -15.07 651.93 25 661.58 81.5 664.01 144.6 664.55 212.36 659.09 275.95 648.51 323.17 637.29 350.49 622.1 352.02 603.32 324.66 584.54 275.33 563.07 212.39 538.88 140.4 514.04 72.35 485.34 16.18 452.26 -27.05 417.29 -49.82 376.71 -52.2 330.56 -37.15 282.42 -5.76 229.22 36.82 172.71 88.93 117.54 144.78 62.9 199.87 12.63 256.65 -29.13 308.77 -60.46 354.44 -77.4 399.06 -79.31 437.11 -63.62 468.39 -29.98 499.07 16.48 523.95 75.76 542.73 142.93 561.51 208.8 573.3 268.17 578.04 316.3 580.23 359.4 542.49 351.74 504.05 313.93 477.9 279.27 449.01 244.46 421.5 212.82 403.52 180.98 394.38 155.76 398.88 138.2 420.81 123.28 460.41 116.08 517.41 115.95 587.34 117.95 666.07 125.52 745.31 137.6 815.5 150.37 868.64 166.39 896.02 185.16Q896.02 185.17 896.02 185.17" opacity="0.24"></path><path d="M862.02 253.39C840.36 286.25 739.89 336.67 608.18 403.15 479.72 472.89 388.59 560.94 341.79 657.6 339.09 779.33 368.41 797.9 333.48 652.92 300.62 538.08 242.14 446.33 168.71 395.41 102.68 389.45 39.77 415.14 5.2 452.31 8.93 502.9 65.21 539.76 169.59 553.93 277.21 565.87 364.36 555.41 386.02 522.54 321.15 489.68 208.16 437.53 98.06 368.65 12.11 297.53 -14.02 209.39 12.13 115.73 75.41 35.49 157.35 -25.05 233.08 -43.17 312.78 -16.34 373.12 62.08 405.98 176.92 438.84 287.8 441.11 369.32 418.36 407.55 399.58 400.23 368.92 364.26 348.71 321.01 365.62 267.43 426.62 230.66 536.65 217.87 670.85 208.33 797.15 220.53 862.02 253.39Q862.02 253.39 862.02 253.39" opacity="0.37"></path><path d="M828.03 363.26C814.81 391.43 740.11 438.68 634.28 500.24 518.43 561.24 418.81 633.2 348.3 704.84 302.22 762.79 278.25 802.32 263.32 808.22 256.88 781.47 243.38 715.42 215.22 618.97 187.05 519.57 146.88 434.34 104.51 376.85 70.63 350.65 50.64 350.24 59.8 363.93 93.4 392.98 163.14 417.96 258.34 428.98 343.52 441.35 406.81 435.08 420.03 406.91 369.12 378.75 279.84 331.35 185.31 270.17 96.56 210.34 45.06 141.4 33.54 75.43 49.72 24.83 90.45 -4.63 137.81 0.91 192.36 37.74 238.52 111.54 266.68 210.93 294.86 307.4 302.37 384.87 296.64 432.27 298.08 447.03 301.3 437.37 322.03 416.34 370.46 381.62 451.84 353.62 561.23 341.43 676.4 328.68 777.1 335.09 828.03 363.25Q828.03 363.26 828.03 363.26" opacity="0.87"></path><path d="M794.03 483.59C787.54 507.06 735.95 545.11 657.41 592.31 563.66 637.17 472.12 685.88 395.96 728.99 330.59 759.72 282.74 773.07 248.7 760.59 220.61 727.04 196.6 666.39 173.13 584.97 149.65 501.49 128.95 425.79 116.36 367.57 109.72 328.87 120.94 308.67 155.54 301.5 200.94 307.31 267.58 314.8 344.13 316.27 405.46 320.53 447.54 312.81 454.03 289.34 415.66 265.86 349.06 228.87 274.26 183.93 194.8 141.78 134.96 97.66 101.61 61.09 83.73 37.49 88.49 32.8 106.94 54.28 131.58 95.29 158.95 161.47 182.42 244.93 205.89 326.36 223.25 396.54 239.28 447.3 261.5 476.99 293.37 488.53 342.01 488.58 406.12 476.23 490.85 464.15 587.52 459.97 679.52 453.44 755.64 460.11 794.03 483.58Q794.03 483.59 794.03 483.59" opacity="0.24"></path><path d="M760 580.11C758.54 598.89 726.6 624.79 674.2 653.78 607.35 680.37 535.81 705.48 469.91 723.06 405.47 732 351.7 726.9 310.83 703.96 272.44 669.16 243.53 616.78 224.76 550.92 205.98 483.74 199.1 420.13 204.95 366.53 213.28 323.47 237.75 291.94 277.57 270.49 318.86 257.63 370.49 248.83 423.58 239.82 462.21 233.36 486.54 221.94 488 203.17 460.57 184.39 414.56 160.03 361.01 133.95 299.08 110.41 245.41 89.9 206.89 78.16 173.78 74.99 157.38 86.61 155.83 115.91 157.63 155.74 169.05 211.74 187.83 278.92 206.61 344.78 230.97 404.77 261.71 453.33 295.8 490.04 341.5 515.06 399.23 530.73 462.36 537.76 535.94 541.96 611.64 547.9 678.95 551.45 732.57 561.33 760 580.11Q760 580.11 760 580.11" opacity="0.76"></path><path d="M726.03 625.51C712.81 653.68 636.89 680.15 548.99 684.57 451.5 670.88 376.62 613.42 348.45 516.97 320.28 417.56 344.17 329.99 404.74 272.04 455.73 231.14 508.81 201.2 522.03 173.03 471.12 144.86 392.98 123.8 332.87 127.79 272.15 148.82 252.71 213.56 280.88 312.97 309.04 409.42 379.48 489.71 477.12 540.32 574.15 572.82 675.12 597.34 726.03 625.51Q726.03 625.51 726.03 625.51" opacity="0.91"></path><path d="M692.03 606.75C660.27 644.31 531.14 607.53 493.59 482.96 456.03 353.2 524.27 244.91 556.03 207.35 475.93 169.8 385.38 217.2 422.94 346.96 460.49 471.53 611.93 569.2 692.03 606.75Q692.03 606.75 692.03 606.75" opacity="0.20"></path></g></svg>