<svg xmlns="http://www.w3.org/2000/svg" version="1.1" xmlns:xlink="http://www.w3.org/1999/xlink" xmlns:svgjs="http://svgjs.dev/svgjs" viewBox="0 0 1422 800" opacity="1"><g stroke-width="4.5" stroke="hsl(264, 58%, 60%)" fill="none" stroke-linecap="square"><line x1="46" y1="0" x2="0" y2="46" opacity="1.00"></line><line x1="92" y1="0" x2="46" y2="46" opacity="1.00"></line><line x1="92" y1="0" x2="138" y2="46" opacity="1.00"></line><line x1="138" y1="0" x2="184" y2="46" opacity="1.00"></line><line x1="184" y1="0" x2="230" y2="46" opacity="1.00"></line><line x1="230" y1="0" x2="276" y2="46" opacity="1.00"></line><line x1="276" y1="0" x2="322" y2="46" opacity="1.00"></line><line x1="368" y1="0" x2="322" y2="46" opacity="1.00"></line><line x1="368" y1="0" x2="414" y2="46" opacity="1.00"></line><line x1="460" y1="0" x2="414" y2="46" opacity="1.00"></line><line x1="506" y1="0" x2="460" y2="46" opacity="1.00"></line><line x1="506" y1="0" x2="552" y2="46" opacity="1.00"></line><line x1="598" y1="0" x2="552" y2="46" opacity="1.00"></line><line x1="598" y1="0" x2="644" y2="46" opacity="1.00"></line><line x1="644" y1="0" x2="690" y2="46" opacity="1.00"></line><line x1="736" y1="0" x2="690" y2="46" opacity="1.00"></line><line x1="736" y1="0" x2="782" y2="46" opacity="1.00"></line><line x1="828" y1="0" x2="782" y2="46" opacity="1.00"></line><line x1="874" y1="0" x2="828" y2="46" opacity="1.00"></line><line x1="920" y1="0" x2="874" y2="46" opacity="1.00"></line><line x1="920" y1="0" x2="966" y2="46" opacity="1.00"></line><line x1="966" y1="0" x2="1012" y2="46" opacity="1.00"></line><line x1="1058" y1="0" x2="1012" y2="46" opacity="1.00"></line><line x1="1104" y1="0" x2="1058" y2="46" opacity="1.00"></line><line x1="1150" y1="0" x2="1104" y2="46" opacity="1.00"></line><line x1="1196" y1="0" x2="1150" y2="46" opacity="1.00"></line><line x1="1242" y1="0" x2="1196" y2="46" opacity="1.00"></line><line x1="1288" y1="0" x2="1242" y2="46" opacity="1.00"></line><line x1="1288" y1="0" x2="1334" y2="46" opacity="1.00"></line><line x1="1334" y1="0" x2="1380" y2="46" opacity="1.00"></line><line x1="1380" y1="0" x2="1426" y2="46" opacity="1.00"></line><line x1="46" y1="46" x2="0" y2="92" opacity="0.95"></line><line x1="92" y1="46" x2="46" y2="92" opacity="0.95"></line><line x1="138" y1="46" x2="92" y2="92" opacity="0.95"></line><line x1="184" y1="46" x2="138" y2="92" opacity="0.95"></line><line x1="184" y1="46" x2="230" y2="92" opacity="0.95"></line><line x1="230" y1="46" x2="276" y2="92" opacity="0.95"></line><line x1="276" y1="46" x2="322" y2="92" opacity="0.95"></line><line x1="368" y1="46" x2="322" y2="92" opacity="0.95"></line><line x1="368" y1="46" x2="414" y2="92" opacity="0.95"></line><line x1="460" y1="46" x2="414" y2="92" opacity="0.95"></line><line x1="506" y1="46" x2="460" y2="92" opacity="0.95"></line><line x1="506" y1="46" x2="552" y2="92" opacity="0.95"></line><line x1="552" y1="46" x2="598" y2="92" opacity="0.95"></line><line x1="644" y1="46" x2="598" y2="92" opacity="0.95"></line><line x1="690" y1="46" x2="644" y2="92" opacity="0.95"></line><line x1="690" y1="46" x2="736" y2="92" opacity="0.95"></line><line x1="782" y1="46" x2="736" y2="92" opacity="0.95"></line><line x1="828" y1="46" x2="782" y2="92" opacity="0.95"></line><line x1="828" y1="46" x2="874" y2="92" opacity="0.95"></line><line x1="874" y1="46" x2="920" y2="92" opacity="0.95"></line><line x1="920" y1="46" x2="966" y2="92" opacity="0.95"></line><line x1="966" y1="46" x2="1012" y2="92" opacity="0.95"></line><line x1="1058" y1="46" x2="1012" y2="92" opacity="0.95"></line><line x1="1104" y1="46" x2="1058" y2="92" opacity="0.95"></line><line x1="1104" y1="46" x2="1150" y2="92" opacity="0.95"></line><line x1="1196" y1="46" x2="1150" y2="92" opacity="0.95"></line><line x1="1196" y1="46" x2="1242" y2="92" opacity="0.95"></line><line x1="1288" y1="46" x2="1242" y2="92" opacity="0.95"></line><line x1="1334" y1="46" x2="1288" y2="92" opacity="0.95"></line><line x1="1334" y1="46" x2="1380" y2="92" opacity="0.95"></line><line x1="1426" y1="46" x2="1380" y2="92" opacity="0.95"></line><line x1="0" y1="92" x2="46" y2="138" opacity="0.89"></line><line x1="92" y1="92" x2="46" y2="138" opacity="0.89"></line><line x1="138" y1="92" x2="92" y2="138" opacity="0.89"></line><line x1="184" y1="92" x2="138" y2="138" opacity="0.89"></line><line x1="184" y1="92" x2="230" y2="138" opacity="0.89"></line><line x1="276" y1="92" x2="230" y2="138" opacity="0.89"></line><line x1="322" y1="92" x2="276" y2="138" opacity="0.89"></line><line x1="322" y1="92" x2="368" y2="138" opacity="0.89"></line><line x1="414" y1="92" x2="368" y2="138" opacity="0.89"></line><line x1="414" y1="92" x2="460" y2="138" opacity="0.89"></line><line x1="506" y1="92" x2="460" y2="138" opacity="0.89"></line><line x1="506" y1="92" x2="552" y2="138" opacity="0.89"></line><line x1="598" y1="92" x2="552" y2="138" opacity="0.89"></line><line x1="644" y1="92" x2="598" y2="138" opacity="0.89"></line><line x1="644" y1="92" x2="690" y2="138" opacity="0.89"></line><line x1="736" y1="92" x2="690" y2="138" opacity="0.89"></line><line x1="736" y1="92" x2="782" y2="138" opacity="0.89"></line><line x1="828" y1="92" x2="782" y2="138" opacity="0.89"></line><line x1="828" y1="92" x2="874" y2="138" opacity="0.89"></line><line x1="920" y1="92" x2="874" y2="138" opacity="0.89"></line><line x1="920" y1="92" x2="966" y2="138" opacity="0.89"></line><line x1="1012" y1="92" x2="966" y2="138" opacity="0.89"></line><line x1="1012" y1="92" x2="1058" y2="138" opacity="0.89"></line><line x1="1104" y1="92" x2="1058" y2="138" opacity="0.89"></line><line x1="1104" y1="92" x2="1150" y2="138" opacity="0.89"></line><line x1="1150" y1="92" x2="1196" y2="138" opacity="0.89"></line><line x1="1196" y1="92" x2="1242" y2="138" opacity="0.89"></line><line x1="1242" y1="92" x2="1288" y2="138" opacity="0.89"></line><line x1="1288" y1="92" x2="1334" y2="138" opacity="0.89"></line><line x1="1380" y1="92" x2="1334" y2="138" opacity="0.89"></line><line x1="1426" y1="92" x2="1380" y2="138" opacity="0.89"></line><line x1="46" y1="138" x2="0" y2="184" opacity="0.84"></line><line x1="46" y1="138" x2="92" y2="184" opacity="0.84"></line><line x1="138" y1="138" x2="92" y2="184" opacity="0.84"></line><line x1="138" y1="138" x2="184" y2="184" opacity="0.84"></line><line x1="184" y1="138" x2="230" y2="184" opacity="0.84"></line><line x1="276" y1="138" x2="230" y2="184" opacity="0.84"></line><line x1="276" y1="138" x2="322" y2="184" opacity="0.84"></line><line x1="368" y1="138" x2="322" y2="184" opacity="0.84"></line><line x1="414" y1="138" x2="368" y2="184" opacity="0.84"></line><line x1="460" y1="138" x2="414" y2="184" opacity="0.84"></line><line x1="460" y1="138" x2="506" y2="184" opacity="0.84"></line><line x1="552" y1="138" x2="506" y2="184" opacity="0.84"></line><line x1="552" y1="138" x2="598" y2="184" opacity="0.84"></line><line x1="598" y1="138" x2="644" y2="184" opacity="0.84"></line><line x1="690" y1="138" x2="644" y2="184" opacity="0.84"></line><line x1="736" y1="138" x2="690" y2="184" opacity="0.84"></line><line x1="782" y1="138" x2="736" y2="184" opacity="0.84"></line><line x1="782" y1="138" x2="828" y2="184" opacity="0.84"></line><line x1="828" y1="138" x2="874" y2="184" opacity="0.84"></line><line x1="920" y1="138" x2="874" y2="184" opacity="0.84"></line><line x1="966" y1="138" x2="920" y2="184" opacity="0.84"></line><line x1="1012" y1="138" x2="966" y2="184" opacity="0.84"></line><line x1="1058" y1="138" x2="1012" y2="184" opacity="0.84"></line><line x1="1104" y1="138" x2="1058" y2="184" opacity="0.84"></line><line x1="1104" y1="138" x2="1150" y2="184" opacity="0.84"></line><line x1="1196" y1="138" x2="1150" y2="184" opacity="0.84"></line><line x1="1242" y1="138" x2="1196" y2="184" opacity="0.84"></line><line x1="1288" y1="138" x2="1242" y2="184" opacity="0.84"></line><line x1="1334" y1="138" x2="1288" y2="184" opacity="0.84"></line><line x1="1334" y1="138" x2="1380" y2="184" opacity="0.84"></line><line x1="1426" y1="138" x2="1380" y2="184" opacity="0.84"></line><line x1="0" y1="184" x2="46" y2="230" opacity="0.78"></line><line x1="92" y1="184" x2="46" y2="230" opacity="0.78"></line><line x1="138" y1="184" x2="92" y2="230" opacity="0.78"></line><line x1="138" y1="184" x2="184" y2="230" opacity="0.78"></line><line x1="184" y1="184" x2="230" y2="230" opacity="0.78"></line><line x1="230" y1="184" x2="276" y2="230" opacity="0.78"></line><line x1="276" y1="184" x2="322" y2="230" opacity="0.78"></line><line x1="368" y1="184" x2="322" y2="230" opacity="0.78"></line><line x1="368" y1="184" x2="414" y2="230" opacity="0.78"></line><line x1="460" y1="184" x2="414" y2="230" opacity="0.78"></line><line x1="506" y1="184" x2="460" y2="230" opacity="0.78"></line><line x1="506" y1="184" x2="552" y2="230" opacity="0.78"></line><line x1="552" y1="184" x2="598" y2="230" opacity="0.78"></line><line x1="644" y1="184" x2="598" y2="230" opacity="0.78"></line><line x1="690" y1="184" x2="644" y2="230" opacity="0.78"></line><line x1="736" y1="184" x2="690" y2="230" opacity="0.78"></line><line x1="782" y1="184" x2="736" y2="230" opacity="0.78"></line><line x1="782" y1="184" x2="828" y2="230" opacity="0.78"></line><line x1="874" y1="184" x2="828" y2="230" opacity="0.78"></line><line x1="920" y1="184" x2="874" y2="230" opacity="0.78"></line><line x1="920" y1="184" x2="966" y2="230" opacity="0.78"></line><line x1="966" y1="184" x2="1012" y2="230" opacity="0.78"></line><line x1="1012" y1="184" x2="1058" y2="230" opacity="0.78"></line><line x1="1104" y1="184" x2="1058" y2="230" opacity="0.78"></line><line x1="1104" y1="184" x2="1150" y2="230" opacity="0.78"></line><line x1="1196" y1="184" x2="1150" y2="230" opacity="0.78"></line><line x1="1196" y1="184" x2="1242" y2="230" opacity="0.78"></line><line x1="1288" y1="184" x2="1242" y2="230" opacity="0.78"></line><line x1="1334" y1="184" x2="1288" y2="230" opacity="0.78"></line><line x1="1334" y1="184" x2="1380" y2="230" opacity="0.78"></line><line x1="1426" y1="184" x2="1380" y2="230" opacity="0.78"></line><line x1="46" y1="230" x2="0" y2="276" opacity="0.73"></line><line x1="46" y1="230" x2="92" y2="276" opacity="0.73"></line><line x1="138" y1="230" x2="92" y2="276" opacity="0.73"></line><line x1="184" y1="230" x2="138" y2="276" opacity="0.73"></line><line x1="230" y1="230" x2="184" y2="276" opacity="0.73"></line><line x1="276" y1="230" x2="230" y2="276" opacity="0.73"></line><line x1="276" y1="230" x2="322" y2="276" opacity="0.73"></line><line x1="368" y1="230" x2="322" y2="276" opacity="0.73"></line><line x1="368" y1="230" x2="414" y2="276" opacity="0.73"></line><line x1="414" y1="230" x2="460" y2="276" opacity="0.73"></line><line x1="506" y1="230" x2="460" y2="276" opacity="0.73"></line><line x1="552" y1="230" x2="506" y2="276" opacity="0.73"></line><line x1="598" y1="230" x2="552" y2="276" opacity="0.73"></line><line x1="644" y1="230" x2="598" y2="276" opacity="0.73"></line><line x1="644" y1="230" x2="690" y2="276" opacity="0.73"></line><line x1="736" y1="230" x2="690" y2="276" opacity="0.73"></line><line x1="736" y1="230" x2="782" y2="276" opacity="0.73"></line><line x1="782" y1="230" x2="828" y2="276" opacity="0.73"></line><line x1="874" y1="230" x2="828" y2="276" opacity="0.73"></line><line x1="874" y1="230" x2="920" y2="276" opacity="0.73"></line><line x1="966" y1="230" x2="920" y2="276" opacity="0.73"></line><line x1="1012" y1="230" x2="966" y2="276" opacity="0.73"></line><line x1="1012" y1="230" x2="1058" y2="276" opacity="0.73"></line><line x1="1058" y1="230" x2="1104" y2="276" opacity="0.73"></line><line x1="1150" y1="230" x2="1104" y2="276" opacity="0.73"></line><line x1="1150" y1="230" x2="1196" y2="276" opacity="0.73"></line><line x1="1196" y1="230" x2="1242" y2="276" opacity="0.73"></line><line x1="1242" y1="230" x2="1288" y2="276" opacity="0.73"></line><line x1="1288" y1="230" x2="1334" y2="276" opacity="0.73"></line><line x1="1380" y1="230" x2="1334" y2="276" opacity="0.73"></line><line x1="1380" y1="230" x2="1426" y2="276" opacity="0.73"></line><line x1="46" y1="276" x2="0" y2="322" opacity="0.67"></line><line x1="92" y1="276" x2="46" y2="322" opacity="0.67"></line><line x1="138" y1="276" x2="92" y2="322" opacity="0.67"></line><line x1="184" y1="276" x2="138" y2="322" opacity="0.67"></line><line x1="230" y1="276" x2="184" y2="322" opacity="0.67"></line><line x1="276" y1="276" x2="230" y2="322" opacity="0.67"></line><line x1="276" y1="276" x2="322" y2="322" opacity="0.67"></line><line x1="322" y1="276" x2="368" y2="322" opacity="0.67"></line><line x1="368" y1="276" x2="414" y2="322" opacity="0.67"></line><line x1="460" y1="276" x2="414" y2="322" opacity="0.67"></line><line x1="460" y1="276" x2="506" y2="322" opacity="0.67"></line><line x1="506" y1="276" x2="552" y2="322" opacity="0.67"></line><line x1="598" y1="276" x2="552" y2="322" opacity="0.67"></line><line x1="644" y1="276" x2="598" y2="322" opacity="0.67"></line><line x1="644" y1="276" x2="690" y2="322" opacity="0.67"></line><line x1="736" y1="276" x2="690" y2="322" opacity="0.67"></line><line x1="782" y1="276" x2="736" y2="322" opacity="0.67"></line><line x1="782" y1="276" x2="828" y2="322" opacity="0.67"></line><line x1="828" y1="276" x2="874" y2="322" opacity="0.67"></line><line x1="920" y1="276" x2="874" y2="322" opacity="0.67"></line><line x1="966" y1="276" x2="920" y2="322" opacity="0.67"></line><line x1="966" y1="276" x2="1012" y2="322" opacity="0.67"></line><line x1="1058" y1="276" x2="1012" y2="322" opacity="0.67"></line><line x1="1058" y1="276" x2="1104" y2="322" opacity="0.67"></line><line x1="1150" y1="276" x2="1104" y2="322" opacity="0.67"></line><line x1="1150" y1="276" x2="1196" y2="322" opacity="0.67"></line><line x1="1242" y1="276" x2="1196" y2="322" opacity="0.67"></line><line x1="1242" y1="276" x2="1288" y2="322" opacity="0.67"></line><line x1="1288" y1="276" x2="1334" y2="322" opacity="0.67"></line><line x1="1334" y1="276" x2="1380" y2="322" opacity="0.67"></line><line x1="1380" y1="276" x2="1426" y2="322" opacity="0.67"></line><line x1="46" y1="322" x2="0" y2="368" opacity="0.62"></line><line x1="46" y1="322" x2="92" y2="368" opacity="0.62"></line><line x1="138" y1="322" x2="92" y2="368" opacity="0.62"></line><line x1="138" y1="322" x2="184" y2="368" opacity="0.62"></line><line x1="184" y1="322" x2="230" y2="368" opacity="0.62"></line><line x1="230" y1="322" x2="276" y2="368" opacity="0.62"></line><line x1="322" y1="322" x2="276" y2="368" opacity="0.62"></line><line x1="368" y1="322" x2="322" y2="368" opacity="0.62"></line><line x1="414" y1="322" x2="368" y2="368" opacity="0.62"></line><line x1="460" y1="322" x2="414" y2="368" opacity="0.62"></line><line x1="506" y1="322" x2="460" y2="368" opacity="0.62"></line><line x1="552" y1="322" x2="506" y2="368" opacity="0.62"></line><line x1="552" y1="322" x2="598" y2="368" opacity="0.62"></line><line x1="644" y1="322" x2="598" y2="368" opacity="0.62"></line><line x1="644" y1="322" x2="690" y2="368" opacity="0.62"></line><line x1="736" y1="322" x2="690" y2="368" opacity="0.62"></line><line x1="782" y1="322" x2="736" y2="368" opacity="0.62"></line><line x1="828" y1="322" x2="782" y2="368" opacity="0.62"></line><line x1="828" y1="322" x2="874" y2="368" opacity="0.62"></line><line x1="874" y1="322" x2="920" y2="368" opacity="0.62"></line><line x1="966" y1="322" x2="920" y2="368" opacity="0.62"></line><line x1="1012" y1="322" x2="966" y2="368" opacity="0.62"></line><line x1="1058" y1="322" x2="1012" y2="368" opacity="0.62"></line><line x1="1104" y1="322" x2="1058" y2="368" opacity="0.62"></line><line x1="1150" y1="322" x2="1104" y2="368" opacity="0.62"></line><line x1="1196" y1="322" x2="1150" y2="368" opacity="0.62"></line><line x1="1242" y1="322" x2="1196" y2="368" opacity="0.62"></line><line x1="1288" y1="322" x2="1242" y2="368" opacity="0.62"></line><line x1="1288" y1="322" x2="1334" y2="368" opacity="0.62"></line><line x1="1380" y1="322" x2="1334" y2="368" opacity="0.62"></line><line x1="1426" y1="322" x2="1380" y2="368" opacity="0.62"></line><line x1="46" y1="368" x2="0" y2="414" opacity="0.56"></line><line x1="92" y1="368" x2="46" y2="414" opacity="0.56"></line><line x1="92" y1="368" x2="138" y2="414" opacity="0.56"></line><line x1="184" y1="368" x2="138" y2="414" opacity="0.56"></line><line x1="184" y1="368" x2="230" y2="414" opacity="0.56"></line><line x1="230" y1="368" x2="276" y2="414" opacity="0.56"></line><line x1="322" y1="368" x2="276" y2="414" opacity="0.56"></line><line x1="368" y1="368" x2="322" y2="414" opacity="0.56"></line><line x1="368" y1="368" x2="414" y2="414" opacity="0.56"></line><line x1="460" y1="368" x2="414" y2="414" opacity="0.56"></line><line x1="506" y1="368" x2="460" y2="414" opacity="0.56"></line><line x1="552" y1="368" x2="506" y2="414" opacity="0.56"></line><line x1="552" y1="368" x2="598" y2="414" opacity="0.56"></line><line x1="644" y1="368" x2="598" y2="414" opacity="0.56"></line><line x1="690" y1="368" x2="644" y2="414" opacity="0.56"></line><line x1="736" y1="368" x2="690" y2="414" opacity="0.56"></line><line x1="736" y1="368" x2="782" y2="414" opacity="0.56"></line><line x1="782" y1="368" x2="828" y2="414" opacity="0.56"></line><line x1="874" y1="368" x2="828" y2="414" opacity="0.56"></line><line x1="920" y1="368" x2="874" y2="414" opacity="0.56"></line><line x1="920" y1="368" x2="966" y2="414" opacity="0.56"></line><line x1="966" y1="368" x2="1012" y2="414" opacity="0.56"></line><line x1="1058" y1="368" x2="1012" y2="414" opacity="0.56"></line><line x1="1058" y1="368" x2="1104" y2="414" opacity="0.56"></line><line x1="1104" y1="368" x2="1150" y2="414" opacity="0.56"></line><line x1="1196" y1="368" x2="1150" y2="414" opacity="0.56"></line><line x1="1196" y1="368" x2="1242" y2="414" opacity="0.56"></line><line x1="1288" y1="368" x2="1242" y2="414" opacity="0.56"></line><line x1="1334" y1="368" x2="1288" y2="414" opacity="0.56"></line><line x1="1380" y1="368" x2="1334" y2="414" opacity="0.56"></line><line x1="1380" y1="368" x2="1426" y2="414" opacity="0.56"></line><line x1="0" y1="414" x2="46" y2="460" opacity="0.51"></line><line x1="46" y1="414" x2="92" y2="460" opacity="0.51"></line><line x1="138" y1="414" x2="92" y2="460" opacity="0.51"></line><line x1="138" y1="414" x2="184" y2="460" opacity="0.51"></line><line x1="230" y1="414" x2="184" y2="460" opacity="0.51"></line><line x1="230" y1="414" x2="276" y2="460" opacity="0.51"></line><line x1="322" y1="414" x2="276" y2="460" opacity="0.51"></line><line x1="322" y1="414" x2="368" y2="460" opacity="0.51"></line><line x1="368" y1="414" x2="414" y2="460" opacity="0.51"></line><line x1="414" y1="414" x2="460" y2="460" opacity="0.51"></line><line x1="506" y1="414" x2="460" y2="460" opacity="0.51"></line><line x1="506" y1="414" x2="552" y2="460" opacity="0.51"></line><line x1="552" y1="414" x2="598" y2="460" opacity="0.51"></line><line x1="598" y1="414" x2="644" y2="460" opacity="0.51"></line><line x1="690" y1="414" x2="644" y2="460" opacity="0.51"></line><line x1="736" y1="414" x2="690" y2="460" opacity="0.51"></line><line x1="736" y1="414" x2="782" y2="460" opacity="0.51"></line><line x1="828" y1="414" x2="782" y2="460" opacity="0.51"></line><line x1="828" y1="414" x2="874" y2="460" opacity="0.51"></line><line x1="874" y1="414" x2="920" y2="460" opacity="0.51"></line><line x1="966" y1="414" x2="920" y2="460" opacity="0.51"></line><line x1="966" y1="414" x2="1012" y2="460" opacity="0.51"></line><line x1="1058" y1="414" x2="1012" y2="460" opacity="0.51"></line><line x1="1104" y1="414" x2="1058" y2="460" opacity="0.51"></line><line x1="1104" y1="414" x2="1150" y2="460" opacity="0.51"></line><line x1="1196" y1="414" x2="1150" y2="460" opacity="0.51"></line><line x1="1242" y1="414" x2="1196" y2="460" opacity="0.51"></line><line x1="1288" y1="414" x2="1242" y2="460" opacity="0.51"></line><line x1="1334" y1="414" x2="1288" y2="460" opacity="0.51"></line><line x1="1380" y1="414" x2="1334" y2="460" opacity="0.51"></line><line x1="1380" y1="414" x2="1426" y2="460" opacity="0.51"></line><line x1="46" y1="460" x2="0" y2="506" opacity="0.45"></line><line x1="46" y1="460" x2="92" y2="506" opacity="0.45"></line><line x1="92" y1="460" x2="138" y2="506" opacity="0.45"></line><line x1="138" y1="460" x2="184" y2="506" opacity="0.45"></line><line x1="184" y1="460" x2="230" y2="506" opacity="0.45"></line><line x1="230" y1="460" x2="276" y2="506" opacity="0.45"></line><line x1="276" y1="460" x2="322" y2="506" opacity="0.45"></line><line x1="368" y1="460" x2="322" y2="506" opacity="0.45"></line><line x1="414" y1="460" x2="368" y2="506" opacity="0.45"></line><line x1="460" y1="460" x2="414" y2="506" opacity="0.45"></line><line x1="506" y1="460" x2="460" y2="506" opacity="0.45"></line><line x1="552" y1="460" x2="506" y2="506" opacity="0.45"></line><line x1="598" y1="460" x2="552" y2="506" opacity="0.45"></line><line x1="644" y1="460" x2="598" y2="506" opacity="0.45"></line><line x1="644" y1="460" x2="690" y2="506" opacity="0.45"></line><line x1="690" y1="460" x2="736" y2="506" opacity="0.45"></line><line x1="782" y1="460" x2="736" y2="506" opacity="0.45"></line><line x1="828" y1="460" x2="782" y2="506" opacity="0.45"></line><line x1="828" y1="460" x2="874" y2="506" opacity="0.45"></line><line x1="874" y1="460" x2="920" y2="506" opacity="0.45"></line><line x1="966" y1="460" x2="920" y2="506" opacity="0.45"></line><line x1="1012" y1="460" x2="966" y2="506" opacity="0.45"></line><line x1="1012" y1="460" x2="1058" y2="506" opacity="0.45"></line><line x1="1058" y1="460" x2="1104" y2="506" opacity="0.45"></line><line x1="1150" y1="460" x2="1104" y2="506" opacity="0.45"></line><line x1="1150" y1="460" x2="1196" y2="506" opacity="0.45"></line><line x1="1242" y1="460" x2="1196" y2="506" opacity="0.45"></line><line x1="1288" y1="460" x2="1242" y2="506" opacity="0.45"></line><line x1="1288" y1="460" x2="1334" y2="506" opacity="0.45"></line><line x1="1334" y1="460" x2="1380" y2="506" opacity="0.45"></line><line x1="1380" y1="460" x2="1426" y2="506" opacity="0.45"></line><line x1="46" y1="506" x2="0" y2="552" opacity="0.40"></line><line x1="92" y1="506" x2="46" y2="552" opacity="0.40"></line><line x1="92" y1="506" x2="138" y2="552" opacity="0.40"></line><line x1="138" y1="506" x2="184" y2="552" opacity="0.40"></line><line x1="184" y1="506" x2="230" y2="552" opacity="0.40"></line><line x1="276" y1="506" x2="230" y2="552" opacity="0.40"></line><line x1="322" y1="506" x2="276" y2="552" opacity="0.40"></line><line x1="322" y1="506" x2="368" y2="552" opacity="0.40"></line><line x1="368" y1="506" x2="414" y2="552" opacity="0.40"></line><line x1="414" y1="506" x2="460" y2="552" opacity="0.40"></line><line x1="460" y1="506" x2="506" y2="552" opacity="0.40"></line><line x1="552" y1="506" x2="506" y2="552" opacity="0.40"></line><line x1="552" y1="506" x2="598" y2="552" opacity="0.40"></line><line x1="598" y1="506" x2="644" y2="552" opacity="0.40"></line><line x1="690" y1="506" x2="644" y2="552" opacity="0.40"></line><line x1="736" y1="506" x2="690" y2="552" opacity="0.40"></line><line x1="736" y1="506" x2="782" y2="552" opacity="0.40"></line><line x1="828" y1="506" x2="782" y2="552" opacity="0.40"></line><line x1="874" y1="506" x2="828" y2="552" opacity="0.40"></line><line x1="920" y1="506" x2="874" y2="552" opacity="0.40"></line><line x1="920" y1="506" x2="966" y2="552" opacity="0.40"></line><line x1="966" y1="506" x2="1012" y2="552" opacity="0.40"></line><line x1="1012" y1="506" x2="1058" y2="552" opacity="0.40"></line><line x1="1104" y1="506" x2="1058" y2="552" opacity="0.40"></line><line x1="1150" y1="506" x2="1104" y2="552" opacity="0.40"></line><line x1="1196" y1="506" x2="1150" y2="552" opacity="0.40"></line><line x1="1242" y1="506" x2="1196" y2="552" opacity="0.40"></line><line x1="1242" y1="506" x2="1288" y2="552" opacity="0.40"></line><line x1="1334" y1="506" x2="1288" y2="552" opacity="0.40"></line><line x1="1380" y1="506" x2="1334" y2="552" opacity="0.40"></line><line x1="1426" y1="506" x2="1380" y2="552" opacity="0.40"></line><line x1="0" y1="552" x2="46" y2="598" opacity="0.34"></line><line x1="46" y1="552" x2="92" y2="598" opacity="0.34"></line><line x1="138" y1="552" x2="92" y2="598" opacity="0.34"></line><line x1="138" y1="552" x2="184" y2="598" opacity="0.34"></line><line x1="184" y1="552" x2="230" y2="598" opacity="0.34"></line><line x1="230" y1="552" x2="276" y2="598" opacity="0.34"></line><line x1="276" y1="552" x2="322" y2="598" opacity="0.34"></line><line x1="322" y1="552" x2="368" y2="598" opacity="0.34"></line><line x1="414" y1="552" x2="368" y2="598" opacity="0.34"></line><line x1="460" y1="552" x2="414" y2="598" opacity="0.34"></line><line x1="460" y1="552" x2="506" y2="598" opacity="0.34"></line><line x1="552" y1="552" x2="506" y2="598" opacity="0.34"></line><line x1="598" y1="552" x2="552" y2="598" opacity="0.34"></line><line x1="644" y1="552" x2="598" y2="598" opacity="0.34"></line><line x1="644" y1="552" x2="690" y2="598" opacity="0.34"></line><line x1="736" y1="552" x2="690" y2="598" opacity="0.34"></line><line x1="782" y1="552" x2="736" y2="598" opacity="0.34"></line><line x1="828" y1="552" x2="782" y2="598" opacity="0.34"></line><line x1="874" y1="552" x2="828" y2="598" opacity="0.34"></line><line x1="920" y1="552" x2="874" y2="598" opacity="0.34"></line><line x1="966" y1="552" x2="920" y2="598" opacity="0.34"></line><line x1="1012" y1="552" x2="966" y2="598" opacity="0.34"></line><line x1="1058" y1="552" x2="1012" y2="598" opacity="0.34"></line><line x1="1058" y1="552" x2="1104" y2="598" opacity="0.34"></line><line x1="1104" y1="552" x2="1150" y2="598" opacity="0.34"></line><line x1="1150" y1="552" x2="1196" y2="598" opacity="0.34"></line><line x1="1242" y1="552" x2="1196" y2="598" opacity="0.34"></line><line x1="1242" y1="552" x2="1288" y2="598" opacity="0.34"></line><line x1="1334" y1="552" x2="1288" y2="598" opacity="0.34"></line><line x1="1334" y1="552" x2="1380" y2="598" opacity="0.34"></line><line x1="1380" y1="552" x2="1426" y2="598" opacity="0.34"></line><line x1="46" y1="598" x2="0" y2="644" opacity="0.29"></line><line x1="92" y1="598" x2="46" y2="644" opacity="0.29"></line><line x1="92" y1="598" x2="138" y2="644" opacity="0.29"></line><line x1="138" y1="598" x2="184" y2="644" opacity="0.29"></line><line x1="230" y1="598" x2="184" y2="644" opacity="0.29"></line><line x1="276" y1="598" x2="230" y2="644" opacity="0.29"></line><line x1="276" y1="598" x2="322" y2="644" opacity="0.29"></line><line x1="322" y1="598" x2="368" y2="644" opacity="0.29"></line><line x1="368" y1="598" x2="414" y2="644" opacity="0.29"></line><line x1="460" y1="598" x2="414" y2="644" opacity="0.29"></line><line x1="506" y1="598" x2="460" y2="644" opacity="0.29"></line><line x1="552" y1="598" x2="506" y2="644" opacity="0.29"></line><line x1="598" y1="598" x2="552" y2="644" opacity="0.29"></line><line x1="644" y1="598" x2="598" y2="644" opacity="0.29"></line><line x1="644" y1="598" x2="690" y2="644" opacity="0.29"></line><line x1="736" y1="598" x2="690" y2="644" opacity="0.29"></line><line x1="782" y1="598" x2="736" y2="644" opacity="0.29"></line><line x1="828" y1="598" x2="782" y2="644" opacity="0.29"></line><line x1="828" y1="598" x2="874" y2="644" opacity="0.29"></line><line x1="874" y1="598" x2="920" y2="644" opacity="0.29"></line><line x1="966" y1="598" x2="920" y2="644" opacity="0.29"></line><line x1="966" y1="598" x2="1012" y2="644" opacity="0.29"></line><line x1="1012" y1="598" x2="1058" y2="644" opacity="0.29"></line><line x1="1058" y1="598" x2="1104" y2="644" opacity="0.29"></line><line x1="1104" y1="598" x2="1150" y2="644" opacity="0.29"></line><line x1="1196" y1="598" x2="1150" y2="644" opacity="0.29"></line><line x1="1196" y1="598" x2="1242" y2="644" opacity="0.29"></line><line x1="1288" y1="598" x2="1242" y2="644" opacity="0.29"></line><line x1="1334" y1="598" x2="1288" y2="644" opacity="0.29"></line><line x1="1380" y1="598" x2="1334" y2="644" opacity="0.29"></line><line x1="1380" y1="598" x2="1426" y2="644" opacity="0.29"></line><line x1="0" y1="644" x2="46" y2="690" opacity="0.24"></line><line x1="46" y1="644" x2="92" y2="690" opacity="0.24"></line><line x1="92" y1="644" x2="138" y2="690" opacity="0.24"></line><line x1="184" y1="644" x2="138" y2="690" opacity="0.24"></line><line x1="230" y1="644" x2="184" y2="690" opacity="0.24"></line><line x1="276" y1="644" x2="230" y2="690" opacity="0.24"></line><line x1="322" y1="644" x2="276" y2="690" opacity="0.24"></line><line x1="368" y1="644" x2="322" y2="690" opacity="0.24"></line><line x1="368" y1="644" x2="414" y2="690" opacity="0.24"></line><line x1="460" y1="644" x2="414" y2="690" opacity="0.24"></line><line x1="460" y1="644" x2="506" y2="690" opacity="0.24"></line><line x1="506" y1="644" x2="552" y2="690" opacity="0.24"></line><line x1="552" y1="644" x2="598" y2="690" opacity="0.24"></line><line x1="644" y1="644" x2="598" y2="690" opacity="0.24"></line><line x1="690" y1="644" x2="644" y2="690" opacity="0.24"></line><line x1="736" y1="644" x2="690" y2="690" opacity="0.24"></line><line x1="782" y1="644" x2="736" y2="690" opacity="0.24"></line><line x1="828" y1="644" x2="782" y2="690" opacity="0.24"></line><line x1="874" y1="644" x2="828" y2="690" opacity="0.24"></line><line x1="920" y1="644" x2="874" y2="690" opacity="0.24"></line><line x1="920" y1="644" x2="966" y2="690" opacity="0.24"></line><line x1="1012" y1="644" x2="966" y2="690" opacity="0.24"></line><line x1="1058" y1="644" x2="1012" y2="690" opacity="0.24"></line><line x1="1058" y1="644" x2="1104" y2="690" opacity="0.24"></line><line x1="1150" y1="644" x2="1104" y2="690" opacity="0.24"></line><line x1="1150" y1="644" x2="1196" y2="690" opacity="0.24"></line><line x1="1242" y1="644" x2="1196" y2="690" opacity="0.24"></line><line x1="1288" y1="644" x2="1242" y2="690" opacity="0.24"></line><line x1="1334" y1="644" x2="1288" y2="690" opacity="0.24"></line><line x1="1334" y1="644" x2="1380" y2="690" opacity="0.24"></line><line x1="1426" y1="644" x2="1380" y2="690" opacity="0.24"></line><line x1="46" y1="690" x2="0" y2="736" opacity="0.18"></line><line x1="92" y1="690" x2="46" y2="736" opacity="0.18"></line><line x1="138" y1="690" x2="92" y2="736" opacity="0.18"></line><line x1="184" y1="690" x2="138" y2="736" opacity="0.18"></line><line x1="230" y1="690" x2="184" y2="736" opacity="0.18"></line><line x1="276" y1="690" x2="230" y2="736" opacity="0.18"></line><line x1="322" y1="690" x2="276" y2="736" opacity="0.18"></line><line x1="322" y1="690" x2="368" y2="736" opacity="0.18"></line><line x1="368" y1="690" x2="414" y2="736" opacity="0.18"></line><line x1="460" y1="690" x2="414" y2="736" opacity="0.18"></line><line x1="506" y1="690" x2="460" y2="736" opacity="0.18"></line><line x1="506" y1="690" x2="552" y2="736" opacity="0.18"></line><line x1="598" y1="690" x2="552" y2="736" opacity="0.18"></line><line x1="644" y1="690" x2="598" y2="736" opacity="0.18"></line><line x1="690" y1="690" x2="644" y2="736" opacity="0.18"></line><line x1="690" y1="690" x2="736" y2="736" opacity="0.18"></line><line x1="736" y1="690" x2="782" y2="736" opacity="0.18"></line><line x1="828" y1="690" x2="782" y2="736" opacity="0.18"></line><line x1="874" y1="690" x2="828" y2="736" opacity="0.18"></line><line x1="920" y1="690" x2="874" y2="736" opacity="0.18"></line><line x1="920" y1="690" x2="966" y2="736" opacity="0.18"></line><line x1="966" y1="690" x2="1012" y2="736" opacity="0.18"></line><line x1="1058" y1="690" x2="1012" y2="736" opacity="0.18"></line><line x1="1058" y1="690" x2="1104" y2="736" opacity="0.18"></line><line x1="1150" y1="690" x2="1104" y2="736" opacity="0.18"></line><line x1="1196" y1="690" x2="1150" y2="736" opacity="0.18"></line><line x1="1242" y1="690" x2="1196" y2="736" opacity="0.18"></line><line x1="1288" y1="690" x2="1242" y2="736" opacity="0.18"></line><line x1="1334" y1="690" x2="1288" y2="736" opacity="0.18"></line><line x1="1334" y1="690" x2="1380" y2="736" opacity="0.18"></line><line x1="1380" y1="690" x2="1426" y2="736" opacity="0.18"></line><line x1="0" y1="736" x2="46" y2="782" opacity="0.13"></line><line x1="46" y1="736" x2="92" y2="782" opacity="0.13"></line><line x1="138" y1="736" x2="92" y2="782" opacity="0.13"></line><line x1="184" y1="736" x2="138" y2="782" opacity="0.13"></line><line x1="230" y1="736" x2="184" y2="782" opacity="0.13"></line><line x1="276" y1="736" x2="230" y2="782" opacity="0.13"></line><line x1="322" y1="736" x2="276" y2="782" opacity="0.13"></line><line x1="368" y1="736" x2="322" y2="782" opacity="0.13"></line><line x1="414" y1="736" x2="368" y2="782" opacity="0.13"></line><line x1="460" y1="736" x2="414" y2="782" opacity="0.13"></line><line x1="506" y1="736" x2="460" y2="782" opacity="0.13"></line><line x1="506" y1="736" x2="552" y2="782" opacity="0.13"></line><line x1="552" y1="736" x2="598" y2="782" opacity="0.13"></line><line x1="644" y1="736" x2="598" y2="782" opacity="0.13"></line><line x1="690" y1="736" x2="644" y2="782" opacity="0.13"></line><line x1="736" y1="736" x2="690" y2="782" opacity="0.13"></line><line x1="782" y1="736" x2="736" y2="782" opacity="0.13"></line><line x1="782" y1="736" x2="828" y2="782" opacity="0.13"></line><line x1="874" y1="736" x2="828" y2="782" opacity="0.13"></line><line x1="874" y1="736" x2="920" y2="782" opacity="0.13"></line><line x1="966" y1="736" x2="920" y2="782" opacity="0.13"></line><line x1="966" y1="736" x2="1012" y2="782" opacity="0.13"></line><line x1="1012" y1="736" x2="1058" y2="782" opacity="0.13"></line><line x1="1058" y1="736" x2="1104" y2="782" opacity="0.13"></line><line x1="1150" y1="736" x2="1104" y2="782" opacity="0.13"></line><line x1="1196" y1="736" x2="1150" y2="782" opacity="0.13"></line><line x1="1196" y1="736" x2="1242" y2="782" opacity="0.13"></line><line x1="1288" y1="736" x2="1242" y2="782" opacity="0.13"></line><line x1="1334" y1="736" x2="1288" y2="782" opacity="0.13"></line><line x1="1334" y1="736" x2="1380" y2="782" opacity="0.13"></line><line x1="1380" y1="736" x2="1426" y2="782" opacity="0.13"></line><line x1="46" y1="782" x2="0" y2="828" opacity="0.07"></line><line x1="46" y1="782" x2="92" y2="828" opacity="0.07"></line><line x1="92" y1="782" x2="138" y2="828" opacity="0.07"></line><line x1="138" y1="782" x2="184" y2="828" opacity="0.07"></line><line x1="184" y1="782" x2="230" y2="828" opacity="0.07"></line><line x1="230" y1="782" x2="276" y2="828" opacity="0.07"></line><line x1="322" y1="782" x2="276" y2="828" opacity="0.07"></line><line x1="322" y1="782" x2="368" y2="828" opacity="0.07"></line><line x1="414" y1="782" x2="368" y2="828" opacity="0.07"></line><line x1="460" y1="782" x2="414" y2="828" opacity="0.07"></line><line x1="506" y1="782" x2="460" y2="828" opacity="0.07"></line><line x1="552" y1="782" x2="506" y2="828" opacity="0.07"></line><line x1="552" y1="782" x2="598" y2="828" opacity="0.07"></line><line x1="598" y1="782" x2="644" y2="828" opacity="0.07"></line><line x1="690" y1="782" x2="644" y2="828" opacity="0.07"></line><line x1="690" y1="782" x2="736" y2="828" opacity="0.07"></line><line x1="736" y1="782" x2="782" y2="828" opacity="0.07"></line><line x1="828" y1="782" x2="782" y2="828" opacity="0.07"></line><line x1="874" y1="782" x2="828" y2="828" opacity="0.07"></line><line x1="874" y1="782" x2="920" y2="828" opacity="0.07"></line><line x1="920" y1="782" x2="966" y2="828" opacity="0.07"></line><line x1="1012" y1="782" x2="966" y2="828" opacity="0.07"></line><line x1="1058" y1="782" x2="1012" y2="828" opacity="0.07"></line><line x1="1104" y1="782" x2="1058" y2="828" opacity="0.07"></line><line x1="1104" y1="782" x2="1150" y2="828" opacity="0.07"></line><line x1="1196" y1="782" x2="1150" y2="828" opacity="0.07"></line><line x1="1242" y1="782" x2="1196" y2="828" opacity="0.07"></line><line x1="1288" y1="782" x2="1242" y2="828" opacity="0.07"></line><line x1="1334" y1="782" x2="1288" y2="828" opacity="0.07"></line><line x1="1334" y1="782" x2="1380" y2="828" opacity="0.07"></line><line x1="1380" y1="782" x2="1426" y2="828" opacity="0.07"></line></g></svg>