<svg id="visual" viewBox="0 0 1920 1080" width="1920" height="1080" xmlns="http://www.w3.org/2000/svg" xmlns:xlink="http://www.w3.org/1999/xlink" version="1.1"><path d="M0 925L29.2 915.7C58.3 906.3 116.7 887.7 174.8 872.2C233 856.7 291 844.3 349.2 853.3C407.3 862.3 465.7 892.7 523.8 904.3C582 916 640 909 698.2 891C756.3 873 814.7 844 872.8 832.5C931 821 989 827 1047.2 839.8C1105.3 852.7 1163.7 872.3 1221.8 873.8C1280 875.3 1338 858.7 1396.2 862C1454.3 865.3 1512.7 888.7 1570.8 895.2C1629 901.7 1687 891.3 1745.2 882.8C1803.3 874.3 1861.7 867.7 1890.8 864.3L1920 861L1920 1081L1890.8 1081C1861.7 1081 1803.3 1081 1745.2 1081C1687 1081 1629 1081 1570.8 1081C1512.7 1081 1454.3 1081 1396.2 1081C1338 1081 1280 1081 1221.8 1081C1163.7 1081 1105.3 1081 1047.2 1081C989 1081 931 1081 872.8 1081C814.7 1081 756.3 1081 698.2 1081C640 1081 582 1081 523.8 1081C465.7 1081 407.3 1081 349.2 1081C291 1081 233 1081 174.8 1081C116.7 1081 58.3 1081 29.2 1081L0 1081Z" fill="#fffafa" stroke-linecap="round" stroke-linejoin="miter"></path></svg>